<svg width="714" height="217" viewBox="0 0 714 217" fill="none" xmlns="http://www.w3.org/2000/svg">
<path d="M27.7899 189.21C64.8431 226.263 124.919 226.263 161.972 189.21C199.025 152.157 199.025 92.0813 161.972 55.0281L27.7899 189.21Z" fill="#939EFF"/>
<path d="M94.8811 217C147.282 217 189.762 174.52 189.762 122.119C189.762 69.7174 147.282 27.2377 94.8811 27.2377C42.4797 27.2377 0 69.7174 0 122.119C0 174.52 42.4797 217 94.8811 217Z" fill="#939EFF"/>
<path d="M128.928 176.143H47.2144C43.7034 176.143 40.857 173.296 40.857 169.785V88.0714C40.857 39.5088 80.3658 0 128.928 0H210.642C214.153 0 217 2.84643 217 6.35742V88.0714C217 136.634 177.491 176.143 128.928 176.143Z" fill="#5E5FE7"/>
<path d="M47.2144 176.143H128.928C177.491 176.143 217 136.634 217 88.0714V6.35742C217 4.60192 216.288 3.01257 215.138 1.86188L42.7189 174.281C43.3087 174.872 44.0094 175.341 44.7809 175.66C45.5524 175.98 46.3794 176.144 47.2144 176.143Z" fill="#6977F5"/>
<path d="M215.138 1.8623C212.655 -0.620482 208.63 -0.620482 206.147 1.8623L155.714 52.2949V40.4052C155.714 36.8942 152.868 34.0478 149.357 34.0478C145.846 34.0478 143 36.8942 143 40.4052V65.0097L121.667 86.3426V60.8333C121.667 57.3223 118.82 54.4759 115.309 54.4759C111.798 54.4759 108.952 57.3223 108.952 60.8333V99.0575L87.6192 120.39V81.2622C87.6192 77.7512 84.7728 74.9048 81.2618 74.9048C77.7508 74.9048 74.9044 77.7512 74.9044 81.2622V133.105L27.79 180.219C25.3072 182.702 25.3072 186.727 27.79 189.21C30.2727 191.693 34.2987 191.692 36.7806 189.21L83.895 142.096H135.738C139.249 142.096 142.095 139.249 142.095 135.738C142.095 132.227 139.249 129.381 135.738 129.381H96.6099L117.943 108.048H156.167C159.678 108.048 162.524 105.202 162.524 101.691C162.524 98.1797 159.678 95.3333 156.167 95.3333H130.658L151.99 74.0008H176.595C180.106 74.0008 182.952 71.1543 182.952 67.6434C182.952 64.1324 180.106 61.2859 176.595 61.2859H164.705L215.138 10.853C217.621 8.37018 217.621 4.34509 215.138 1.8623Z" fill="#6977F5"/>
<path d="M27.7899 189.21C30.2727 191.693 34.2987 191.692 36.7806 189.21L83.895 142.096H135.738C139.249 142.096 142.095 139.249 142.095 135.738C142.095 132.227 139.249 129.381 135.738 129.381H96.6099L117.943 108.048H156.167C159.678 108.048 162.524 105.202 162.524 101.691C162.524 98.1797 159.678 95.3333 156.167 95.3333H130.658L151.99 74.0008H176.595C180.106 74.0008 182.952 71.1543 182.952 67.6434C182.952 64.1324 180.106 61.2859 176.595 61.2859H164.705L215.138 10.853C217.62 8.37018 217.62 4.34508 215.138 1.8623L27.7899 189.21Z" fill="#939EFF"/>
<path d="M285.224 123.072C276.947 123.072 272.893 120.981 273.064 116.8C273.064 112.875 277.032 110.912 284.968 110.912C286.845 110.912 288.637 111.125 290.344 111.552C293.16 108.736 294.568 104.469 294.568 98.752C294.568 88.8533 287.955 83.904 274.728 83.904C267.816 83.904 261.245 85.3973 255.016 88.384C252.712 89.4933 250.621 90.5173 248.744 91.456C246.952 92.3947 245.288 92.864 243.752 92.864C242.216 92.864 241.448 92.3947 241.448 91.456C241.448 90.3467 242.301 88.7253 244.008 86.592C245.715 84.3733 248.104 82.1547 251.176 79.936C259.027 74.4747 267.944 71.7013 277.928 71.616C290.984 71.616 300.584 74.2187 306.728 79.424C312.019 83.776 314.664 89.7067 314.664 97.216C314.664 105.92 310.397 112.576 301.864 117.184C310.056 121.877 314.92 127.637 316.456 134.464C316.968 136.853 317.224 140.011 317.224 143.936C317.224 147.861 316.157 151.573 314.024 155.072C311.891 158.571 309.032 161.515 305.448 163.904C298.28 168.512 289.107 170.816 277.928 170.816C269.992 170.816 261.16 169.024 251.432 165.44C244.947 163.051 240.168 160.192 237.096 156.864C235.56 155.243 234.792 153.621 234.792 152C234.877 150.379 235.688 149.568 237.224 149.568C238.845 149.568 241.875 150.123 246.312 151.232V151.104C246.312 144.448 247.08 137.621 248.616 130.624C251.261 118.421 254.333 108.864 257.832 101.952C261.587 94.272 265.469 90.432 269.48 90.432C270.589 90.432 271.144 92.352 271.144 96.192C271.144 100.032 270.76 103.957 269.992 107.968C269.309 111.979 268.541 115.947 267.688 119.872C266.92 123.712 266.152 127.211 265.384 130.368C264.701 133.525 264.36 135.787 264.36 137.152L263.08 156.48C268.115 157.845 272.381 158.528 275.88 158.528C279.379 158.528 282.536 157.931 285.352 156.736C292.435 153.749 295.976 148.544 295.976 141.12C295.976 136.683 295.549 133.013 294.696 130.112C293.843 127.211 292.307 124.651 290.088 122.432C288.125 122.859 286.504 123.072 285.224 123.072Z" fill="white"/>
<path d="M342.825 168.384C334.292 168.384 330.025 160.405 330.025 144.448C330.025 135.744 331.092 127.851 333.225 120.768C336.553 109.845 340.308 104.384 344.489 104.384C346.964 104.384 348.926 106.048 350.377 109.376C351.572 111.936 352.126 114.453 352.041 116.928C352.041 120.341 351.017 126.357 348.969 134.976C347.006 142.485 346.025 147.136 346.025 148.928C346.025 150.72 346.452 151.957 347.305 152.64C348.244 153.323 349.31 153.664 350.505 153.664C351.785 153.664 353.364 152.853 355.241 151.232C357.118 149.611 358.996 147.861 360.873 145.984C362.75 144.021 364.457 142.229 365.993 140.608C367.614 138.987 368.724 138.176 369.321 138.176C370.516 138.176 371.113 139.627 371.113 142.528C371.113 148.501 368.084 154.347 362.025 160.064C356.052 165.696 349.652 168.469 342.825 168.384ZM348.073 94.016C345.769 90.6027 344.617 86.9333 344.617 83.008C344.617 79.0827 345.214 75.84 346.409 73.28C347.689 70.6347 348.884 68.7147 349.993 67.52C351.102 66.24 352.382 65.6 353.833 65.6C356.222 65.6 358.398 67.392 360.361 70.976C362.324 74.4747 363.305 77.4187 363.305 79.808C363.305 84.2453 361.726 87.744 358.569 90.304C355.497 92.7787 351.998 94.016 348.073 94.016Z" fill="white"/>
<path d="M416.427 157.12C409.686 165.056 401.579 169.024 392.107 169.024C382.72 169.024 375.68 166.635 370.987 161.856C366.294 156.992 363.99 150.976 364.075 143.808C363.99 133.653 367.19 124.907 373.675 117.568C380.16 110.229 388.651 106.56 399.147 106.56C403.926 106.56 407.766 107.157 410.667 108.352C415.702 110.4 418.219 112.32 418.219 114.112C418.219 115.477 414.678 116.203 407.595 116.288C400.598 116.288 394.71 118.72 389.931 123.584C385.238 128.363 382.891 134.421 382.891 141.76C382.891 145.6 384 148.843 386.219 151.488C388.523 154.048 391.723 155.328 395.819 155.328C400 155.328 403.456 154.475 406.187 152.768C400.128 148.672 397.099 142.741 397.099 134.976C397.014 130.88 398.464 127.168 401.451 123.84C404.523 120.427 408.406 118.72 413.099 118.72C417.878 118.635 421.291 119.915 423.339 122.56C425.387 125.205 426.411 128.619 426.411 132.8C426.411 136.896 425.43 141.248 423.467 145.856H424.235C427.99 145.771 431.232 144.448 433.963 141.888C434.987 140.864 435.84 139.968 436.523 139.2C437.291 138.432 438.059 138.048 438.827 138.048C440.022 138.048 440.619 139.456 440.619 142.272C440.619 147.477 439.083 151.403 436.011 154.048C432.939 156.608 429.526 157.888 425.771 157.888C422.102 157.888 418.987 157.632 416.427 157.12ZM415.275 142.272C416.726 139.2 417.451 136.213 417.451 133.312C417.451 130.411 416.512 128.96 414.635 128.96C413.867 128.96 413.227 129.515 412.715 130.624C412.203 131.733 411.947 132.8 411.947 133.824C411.947 137.237 413.056 140.053 415.275 142.272Z" fill="white"/>
<path d="M512.807 137.792C514.343 137.792 515.111 139.755 515.111 143.68C515.111 145.813 514.215 148.416 512.423 151.488C510.631 154.475 508.284 157.248 505.383 159.808C502.567 162.283 499.41 164.331 495.911 165.952C492.412 167.573 488.999 168.384 485.671 168.384C480.978 168.384 477.906 164.544 476.455 156.864C471.335 164.971 463.74 169.024 453.671 169.024C447.527 169.024 442.62 167.147 438.951 163.392C435.282 159.637 433.49 155.072 433.575 149.696C433.575 135.189 438.396 123.755 448.039 115.392C454.695 109.675 461.607 106.816 468.775 106.816C472.018 106.816 474.578 107.072 476.455 107.584L479.399 108.352C482.898 91.8827 486.951 80.8747 491.559 75.328C493.095 73.4507 494.631 72.512 496.167 72.512C498.642 72.512 500.946 74.2187 503.079 77.632C504.956 80.448 505.895 82.88 505.895 84.928C505.895 86.976 505.596 88.9813 504.999 90.944C504.402 92.9067 503.634 94.7413 502.695 96.448C501.842 98.0693 500.86 99.6907 499.751 101.312C498.642 102.848 497.532 104.427 496.423 106.048C493.948 115.264 492.114 125.589 490.919 137.024C490.578 140.267 490.407 142.869 490.407 144.832C490.407 150.72 491.388 153.664 493.351 153.664C495.57 153.664 500.946 149.227 509.479 140.352C511.015 138.645 512.124 137.792 512.807 137.792ZM452.391 145.472C452.391 152.043 454.823 155.328 459.687 155.328C462.588 155.328 465.49 154.219 468.391 152C471.378 149.781 473.682 146.069 475.303 140.864C475.474 133.184 476.37 124.736 477.991 115.52C471.164 116.885 465.191 120.213 460.071 125.504C454.951 130.795 452.391 137.451 452.391 145.472Z" fill="white"/>
<path d="M587.307 137.792C588.843 137.792 589.611 139.755 589.611 143.68C589.611 145.813 588.715 148.416 586.923 151.488C585.131 154.475 582.784 157.248 579.883 159.808C577.067 162.283 573.91 164.331 570.411 165.952C566.912 167.573 563.499 168.384 560.171 168.384C555.648 168.384 552.619 164.416 551.083 156.48C548.864 160.149 545.963 163.179 542.379 165.568C538.795 167.872 533.974 169.024 527.915 169.024C521.942 169.024 517.12 167.147 513.451 163.392C509.782 159.637 507.99 155.072 508.075 149.696C508.075 135.189 512.896 123.755 522.539 115.392C526.635 111.893 530.432 109.589 533.931 108.48C537.515 107.371 541.27 106.816 545.195 106.816C549.12 106.816 552.32 107.499 554.795 108.864C555.99 106.389 557.355 105.152 558.891 105.152C561.878 105.152 564.694 106.475 567.339 109.12C570.07 111.68 571.435 114.112 571.435 116.416C570.24 119.232 568.491 122.603 566.187 126.528C565.504 130.453 565.163 135.957 565.163 143.04C565.163 150.123 566.059 153.664 567.851 153.664C570.07 153.664 575.446 149.227 583.979 140.352C585.515 138.645 586.624 137.792 587.307 137.792ZM526.891 145.472C526.891 152.043 529.323 155.328 534.187 155.328C539.392 155.243 543.702 152.469 547.115 147.008C548.31 145.131 549.291 142.827 550.059 140.096C550.059 130.539 550.912 122.347 552.619 115.52C545.707 116.885 539.691 120.213 534.571 125.504C529.451 130.795 526.891 137.451 526.891 145.472Z" fill="white"/>
<path d="M588.847 161.088C587.908 158.784 587.226 156.139 586.799 153.152C586.372 150.08 586.159 145.813 586.159 140.352C586.159 134.891 587.183 127.509 589.231 118.208H583.471C582.447 118.208 581.935 117.781 581.935 116.928C581.935 114.88 582.106 113.216 582.447 111.936C582.874 110.571 583.812 109.035 585.263 107.328H588.335C589.53 107.328 590.81 107.285 592.175 107.2C596.271 94.0587 600.452 87.488 604.719 87.488C608.132 87.5733 610.522 89.7493 611.887 94.016C612.228 95.2107 612.612 96.4907 613.039 97.856L607.791 107.072C613.764 107.243 617.519 107.328 619.055 107.328C620.676 107.328 621.53 107.499 621.615 107.84C621.786 108.096 621.871 108.523 621.871 109.12C621.871 110.656 621.487 112.576 620.719 114.88C620.036 117.184 619.226 118.293 618.287 118.208L605.487 117.568C603.695 127.979 602.799 136.597 602.799 143.424C602.799 150.251 603.78 153.664 605.743 153.664C607.364 153.664 610.308 152.341 614.575 149.696C618.842 146.965 621.914 144.363 623.791 141.888C625.668 139.413 627.204 138.176 628.399 138.176C629.594 138.176 630.191 139.627 630.191 142.528C630.191 145.429 629.167 148.416 627.119 151.488C625.071 154.475 622.468 157.248 619.311 159.808C616.239 162.283 612.783 164.331 608.943 165.952C605.188 167.573 601.903 168.384 599.087 168.384C596.271 168.384 594.095 167.744 592.559 166.464C591.108 165.099 589.871 163.307 588.847 161.088Z" fill="white"/>
<path d="M702.432 137.792C703.968 137.792 704.736 139.755 704.736 143.68C704.736 145.813 703.84 148.416 702.048 151.488C700.256 154.475 697.909 157.248 695.008 159.808C692.192 162.283 689.035 164.331 685.536 165.952C682.037 167.573 678.624 168.384 675.296 168.384C670.773 168.384 667.744 164.416 666.208 156.48C663.989 160.149 661.088 163.179 657.504 165.568C653.92 167.872 649.099 169.024 643.04 169.024C637.067 169.024 632.245 167.147 628.576 163.392C624.907 159.637 623.115 155.072 623.2 149.696C623.2 135.189 628.021 123.755 637.664 115.392C641.76 111.893 645.557 109.589 649.056 108.48C652.64 107.371 656.395 106.816 660.32 106.816C664.245 106.816 667.445 107.499 669.92 108.864C671.115 106.389 672.48 105.152 674.016 105.152C677.003 105.152 679.819 106.475 682.464 109.12C685.195 111.68 686.56 114.112 686.56 116.416C685.365 119.232 683.616 122.603 681.312 126.528C680.629 130.453 680.288 135.957 680.288 143.04C680.288 150.123 681.184 153.664 682.976 153.664C685.195 153.664 690.571 149.227 699.104 140.352C700.64 138.645 701.749 137.792 702.432 137.792ZM642.016 145.472C642.016 152.043 644.448 155.328 649.312 155.328C654.517 155.243 658.827 152.469 662.24 147.008C663.435 145.131 664.416 142.827 665.184 140.096C665.184 130.539 666.037 122.347 667.744 115.52C660.832 116.885 654.816 120.213 649.696 125.504C644.576 130.795 642.016 137.451 642.016 145.472Z" fill="white"/>
<path fill-rule="evenodd" clip-rule="evenodd" d="M264.36 137.152L263.08 156.48C268.115 157.845 272.381 158.528 275.88 158.528C279.379 158.528 282.536 157.931 285.352 156.736C292.435 153.749 295.976 148.544 295.976 141.12C295.976 136.683 295.549 133.013 294.696 130.112C293.843 127.211 292.307 124.651 290.088 122.432C288.125 122.859 286.504 123.072 285.224 123.072C281.422 123.072 278.511 122.631 276.491 121.748C276.491 121.749 276.491 121.748 276.491 121.748C276.342 121.684 276.198 121.616 276.059 121.546C273.976 120.501 272.978 118.919 273.064 116.8C273.064 114.146 274.878 112.389 278.507 111.529C280.245 111.118 282.399 110.912 284.968 110.912C286.845 110.912 288.637 111.125 290.344 111.552C293.16 108.736 294.568 104.469 294.568 98.752C294.568 89.186 288.392 84.2422 276.039 83.9208C275.609 83.9096 275.172 83.904 274.728 83.904C272.956 83.904 271.207 84.0021 269.48 84.1984C264.982 84.7095 260.636 85.8864 256.442 87.7289C255.965 87.9386 255.489 88.157 255.016 88.384C254.94 88.4207 254.864 88.4572 254.788 88.4937C253.227 89.2463 251.765 89.9592 250.402 90.6324C250.167 90.7481 249.936 90.8627 249.707 90.9761C249.662 90.9986 249.617 91.0209 249.572 91.0433C249.292 91.1826 249.016 91.3202 248.744 91.456C246.952 92.3947 245.288 92.864 243.752 92.864C242.216 92.864 241.448 92.3947 241.448 91.456C241.448 90.4036 242.216 88.8904 243.752 86.9164C243.835 86.8096 243.92 86.7015 244.008 86.592C244.418 86.0584 244.868 85.5249 245.358 84.9913C245.391 84.9552 245.424 84.9192 245.458 84.8831C245.605 84.724 245.756 84.5649 245.911 84.4058C247.074 83.2081 248.436 82.0105 249.997 80.8128C250.378 80.5205 250.771 80.2283 251.176 79.936C259.027 74.4747 267.944 71.7013 277.928 71.616C290.984 71.616 300.584 74.2187 306.728 79.424C312.019 83.776 314.664 89.7067 314.664 97.216C314.664 102.745 312.942 107.448 309.499 111.324C307.522 113.55 304.977 115.503 301.864 117.184C304.953 118.954 307.568 120.875 309.711 122.948C313.251 126.372 315.499 130.211 316.456 134.464C316.968 136.853 317.224 140.011 317.224 143.936C317.224 147.861 316.157 151.573 314.024 155.072C311.891 158.571 309.032 161.515 305.448 163.904C298.28 168.512 289.107 170.816 277.928 170.816C269.992 170.816 261.16 169.024 251.432 165.44C246.281 163.542 242.207 161.348 239.209 158.859C239.017 158.699 238.829 158.538 238.646 158.376C238.138 157.927 237.664 157.469 237.224 157.001C237.181 156.956 237.138 156.91 237.096 156.864C235.56 155.243 234.792 153.621 234.792 152C234.877 150.379 235.688 149.568 237.224 149.568C237.257 149.568 237.29 149.568 237.324 149.569C238.585 149.586 240.641 149.916 243.492 150.559C243.505 150.562 243.519 150.565 243.532 150.568C244.238 150.727 244.993 150.906 245.796 151.104C245.966 151.146 246.138 151.188 246.312 151.232V151.104C246.312 148.13 246.465 145.122 246.772 142.08C247.152 138.313 247.766 134.495 248.616 130.624C251.261 118.421 254.333 108.864 257.832 101.952C259.164 99.2271 260.512 96.9855 261.877 95.2274C261.955 95.1269 262.033 95.028 262.111 94.9306C262.15 94.8827 262.188 94.8351 262.227 94.7879C264.596 91.884 267.014 90.432 269.48 90.432C270.234 90.432 270.731 91.3179 270.973 93.0898C271.087 93.9264 271.144 94.9604 271.144 96.192C271.144 99.1488 270.916 102.156 270.461 105.214C270.325 106.128 270.169 107.046 269.992 107.968C269.498 110.871 268.959 113.751 268.376 116.609C268.363 116.672 268.35 116.736 268.337 116.8C268.126 117.827 267.91 118.851 267.688 119.872C267.326 121.68 266.965 123.413 266.603 125.07C266.197 126.931 265.79 128.697 265.384 130.368C264.701 133.525 264.36 135.787 264.36 137.152ZM274.157 132.379C273.854 133.79 273.645 134.913 273.515 135.775C273.449 136.214 273.408 136.553 273.384 136.803C273.36 137.062 273.36 137.167 273.36 137.152V137.45L272.576 149.289C273.838 149.454 274.936 149.528 275.88 149.528C278.343 149.528 280.281 149.111 281.837 148.451L281.846 148.447L281.855 148.443C284.153 147.474 285.28 146.409 285.879 145.53C286.462 144.672 286.976 143.357 286.976 141.12C286.976 137.18 286.588 134.441 286.062 132.652C286.003 132.452 285.938 132.256 285.866 132.062C285.651 132.069 285.437 132.072 285.224 132.072C281.646 132.072 277.919 131.751 274.572 130.639C274.434 131.229 274.296 131.809 274.157 132.379ZM279.879 102.179C281.571 101.984 283.286 101.912 284.968 101.912C285.089 101.912 285.211 101.913 285.332 101.914C285.476 101.072 285.568 100.033 285.568 98.752C285.568 96.0059 284.789 95.2505 284.215 94.8216C283.557 94.329 282.282 93.7116 280.043 93.3125C280.12 94.3019 280.144 95.2771 280.144 96.192C280.144 98.178 280.055 100.174 279.879 102.179ZM248.196 101.282C244.924 108.667 242.17 117.883 239.823 128.706C238.947 132.695 238.298 136.654 237.879 140.582C237.655 140.573 237.436 140.568 237.224 140.568C234.906 140.568 231.705 141.207 229.1 143.812C226.575 146.337 225.916 149.415 225.804 151.527L225.792 151.763V152C225.792 156.649 228.023 160.359 230.521 163.01C234.932 167.77 241.16 171.247 248.321 173.885C258.756 177.73 268.661 179.816 277.928 179.816C290.304 179.816 301.307 177.266 310.315 171.475L310.378 171.434L310.44 171.392C315.058 168.314 318.858 164.433 321.708 159.757C321.944 159.371 322.17 158.982 322.388 158.59C323.055 161.525 324 164.234 325.289 166.644C326.95 169.751 329.283 172.543 332.464 174.526C335.656 176.515 339.197 177.375 342.766 177.384C351.181 177.476 358.785 174.412 365.446 169.022C372.346 175.483 381.739 178.024 392.107 178.024C402.824 178.024 412.142 174.022 419.807 166.654C421.705 166.815 423.699 166.888 425.771 166.888C427.164 166.888 428.526 166.774 429.853 166.552C430.65 167.638 431.538 168.683 432.514 169.682C438.166 175.465 445.551 178.024 453.671 178.024C461.327 178.024 468.143 176.114 473.854 172.312C476.917 175.525 480.992 177.384 485.671 177.384C490.498 177.384 495.198 176.202 499.695 174.118C502.329 172.897 504.821 171.469 507.163 169.833C512.744 175.46 519.954 178.024 527.915 178.024C535.005 178.024 541.719 176.691 547.246 173.139L547.309 173.098L547.371 173.056C547.762 172.796 548.146 172.53 548.525 172.257C551.466 175.408 555.446 177.384 560.171 177.384C564.998 177.384 569.698 176.202 574.195 174.118C577.312 172.674 580.23 170.939 582.935 168.913C583.93 170.396 585.074 171.778 586.391 173.018L586.589 173.204L586.797 173.378C590.501 176.464 595.014 177.384 599.087 177.384C603.542 177.384 608.074 176.127 612.477 174.229C615.755 172.843 618.836 171.178 621.703 169.227C621.847 169.38 621.992 169.532 622.139 169.682C627.741 175.414 635.008 178.024 643.04 178.024C650.13 178.024 656.844 176.691 662.371 173.139L662.434 173.098L662.496 173.056C662.887 172.796 663.271 172.53 663.65 172.257C666.591 175.408 670.571 177.384 675.296 177.384C680.123 177.384 684.823 176.202 689.32 174.118C693.579 172.144 697.467 169.629 700.949 166.568L700.956 166.563L700.963 166.557C704.481 163.452 707.449 159.98 709.765 156.118L709.794 156.071L709.822 156.023C711.942 152.389 713.736 148.141 713.736 143.68C713.736 141.393 713.549 138.559 712.541 135.984C712.009 134.625 711.05 132.82 709.276 131.309C707.333 129.654 704.92 128.792 702.432 128.792C698.884 128.792 696.36 130.715 695.601 131.298C694.471 132.168 693.43 133.212 692.521 134.213C691.402 135.376 690.353 136.444 689.374 137.422C689.48 134.224 689.68 131.621 689.951 129.57C691.966 126.048 693.619 122.822 694.845 119.931L695.56 118.246V116.416C695.56 110.502 692.14 105.883 688.723 102.652C684.856 98.8244 679.905 96.152 674.016 96.152C671.136 96.152 668.83 97.0941 667.008 98.4174C664.826 97.9949 662.578 97.816 660.32 97.816C655.534 97.816 650.88 98.4942 646.395 99.8824L646.365 99.8916L646.336 99.9009C641.284 101.503 636.439 104.602 631.819 108.549L631.793 108.571L631.767 108.593C631.464 108.856 631.164 109.122 630.869 109.39C630.87 109.3 630.871 109.21 630.871 109.12C630.871 108.292 630.837 106.192 629.761 103.993C628.625 101.541 626.698 100.25 625.717 99.7149C624.486 99.0437 623.341 98.7655 622.713 98.6381L621.629 95.1715C621.221 93.8663 620.859 92.6576 620.541 91.5435L620.502 91.4076L620.459 91.273C619.473 88.1912 617.856 85.0114 615.131 82.5299C612.241 79.8976 608.681 78.5842 604.944 78.4908L604.831 78.488H604.719C597.656 78.488 593.2 83.7968 590.79 87.5841C588.931 90.5049 587.247 94.1393 585.686 98.328H581.101L578.406 101.499C577.502 102.563 576.613 103.732 575.832 105.002C575.112 104.151 574.355 103.368 573.598 102.652C569.731 98.8244 564.78 96.152 558.891 96.152C556.011 96.152 553.705 97.0941 551.883 98.4174C549.701 97.9949 547.453 97.816 545.195 97.816C540.409 97.816 535.755 98.4942 531.27 99.8824L531.24 99.8916L531.211 99.9009C526.159 101.503 521.314 104.602 516.694 108.549L516.668 108.571L516.642 108.593C507.93 116.149 502.556 125.717 500.304 136.866C500.184 136.986 500.066 137.105 499.948 137.223C501.037 127.086 502.64 117.974 504.727 109.859C505.502 108.743 506.275 107.65 507.047 106.581L507.114 106.489L507.179 106.394C508.454 104.53 509.605 102.635 510.622 100.71C511.857 98.4518 512.848 96.0636 513.609 93.5645C514.464 90.7538 514.895 87.8655 514.895 84.928C514.895 80.335 512.893 76.1528 510.639 72.7478C507.917 68.4359 503.267 63.512 496.167 63.512C490.701 63.512 486.874 66.8504 484.615 69.6027C479.573 75.6861 475.725 85.5225 472.577 97.933C471.336 97.8507 470.063 97.816 468.775 97.816C459.002 97.816 450.082 101.772 442.175 108.565L442.158 108.579L442.142 108.593C438.218 111.997 434.97 115.809 432.381 119.99C431.825 118.976 431.186 117.994 430.456 117.05C429.477 115.786 428.387 114.718 427.215 113.822C427.087 108.72 423.599 105.553 421.789 104.172C419.608 102.508 416.88 101.164 414.078 100.023C409.677 98.215 404.542 97.56 399.147 97.56C386.28 97.56 375.258 102.185 366.931 111.608C364.554 114.297 362.536 117.149 360.875 120.151C360.978 119.038 361.035 118.013 361.041 117.082C361.151 113.093 360.238 109.26 358.58 105.671C357.996 104.352 357.245 102.982 356.304 101.69C359.135 100.734 361.787 99.2689 364.215 97.3128L364.226 97.3038L364.237 97.2948C369.713 92.8549 372.305 86.6751 372.305 79.808C372.305 75.1757 370.487 70.6404 368.232 66.612C365.846 62.2707 361.348 56.6 353.833 56.6C349.387 56.6 345.795 58.6798 343.296 61.5062C341.32 63.6697 339.694 66.4939 338.308 69.36L338.28 69.4168L338.253 69.474C336.33 73.5955 335.617 78.2479 335.617 83.008C335.617 87.8085 336.805 92.3349 339.054 96.4834C335.483 97.9982 332.875 100.83 331.121 103.381C328.477 107.227 326.384 112.341 324.616 118.145L324.612 118.159L324.607 118.172C323.882 120.58 323.271 123.053 322.769 125.588C321.181 122.427 319.055 119.571 316.493 116.999C317.419 115.929 318.271 114.794 319.041 113.593C322.196 108.671 323.664 103.11 323.664 97.216C323.664 87.3314 320.047 78.7512 312.495 72.5146C303.984 65.3331 291.85 62.616 277.928 62.616H277.89L277.851 62.6163C266.14 62.7164 255.442 66.0049 246.036 72.5479L245.971 72.5933L245.907 72.6399C242.387 75.1817 239.308 77.9594 236.928 81.0351C235.892 82.3352 234.899 83.744 234.124 85.2163C233.409 86.5751 232.448 88.7835 232.448 91.456C232.448 94.8969 234.135 98.2384 237.331 100.192C239.806 101.704 242.36 101.864 243.752 101.864C245.295 101.864 246.781 101.649 248.196 101.282ZM349.993 67.52C348.884 68.7147 347.689 70.6347 346.409 73.28C345.214 75.84 344.617 79.0827 344.617 83.008C344.617 86.9333 345.769 90.6027 348.073 94.016C351.998 94.016 355.497 92.7787 358.569 90.304C361.726 87.744 363.305 84.2453 363.305 79.808C363.305 77.4187 362.324 74.4747 360.361 70.976C358.398 67.392 356.222 65.6 353.833 65.6C352.382 65.6 351.102 66.24 349.993 67.52ZM350.377 109.376C348.926 106.048 346.964 104.384 344.489 104.384C340.308 104.384 336.553 109.845 333.225 120.768C331.092 127.851 330.025 135.744 330.025 144.448C330.025 160.405 334.292 168.384 342.825 168.384C348.816 168.459 354.478 166.332 359.812 162.004C360.556 161.4 361.294 160.753 362.025 160.064C363.718 158.466 365.175 156.858 366.395 155.241C367.518 157.642 369.049 159.847 370.987 161.856C371.284 162.159 371.591 162.452 371.907 162.735C376.581 166.928 383.315 169.024 392.107 169.024C401.579 169.024 409.686 165.056 416.427 157.12C416.808 157.196 417.201 157.267 417.607 157.332C417.763 157.357 417.922 157.381 418.082 157.404C420.258 157.721 422.771 157.882 425.621 157.888C425.671 157.888 425.721 157.888 425.771 157.888C428.825 157.888 431.653 157.041 434.256 155.347C435.052 158.254 436.545 160.86 438.733 163.165C438.805 163.241 438.877 163.317 438.951 163.392C442.62 167.147 447.527 169.024 453.671 169.024C459.765 169.024 464.952 167.54 469.233 164.571C472.024 162.635 474.43 160.069 476.45 156.872C476.452 156.869 476.453 156.867 476.455 156.864C476.455 156.865 476.455 156.866 476.455 156.866C477.295 161.312 478.679 164.47 480.605 166.342C482.007 167.703 483.695 168.384 485.671 168.384C488.999 168.384 492.412 167.573 495.911 165.952C498.034 164.968 500.031 163.827 501.902 162.53C503.115 161.688 504.276 160.781 505.383 159.808C506.705 158.641 507.912 157.43 509.004 156.175C509.876 158.844 511.358 161.25 513.451 163.392C513.647 163.593 513.846 163.788 514.049 163.978C517.639 167.342 522.261 169.024 527.915 169.024C533.974 169.024 538.795 167.872 542.379 165.568C542.915 165.211 543.435 164.839 543.94 164.454C546.701 162.346 549.007 159.811 550.857 156.849C550.933 156.726 551.008 156.604 551.083 156.48C551.09 156.515 551.097 156.55 551.103 156.585C551.978 161.044 553.328 164.239 555.153 166.171C556.548 167.646 558.221 168.384 560.171 168.384C563.499 168.384 566.912 167.573 570.411 165.952C573.604 164.472 576.513 162.637 579.137 160.447C579.389 160.237 579.637 160.024 579.883 159.808C582.188 157.774 584.143 155.605 585.748 153.302C585.749 153.301 585.75 153.299 585.751 153.298C586.064 152.849 586.363 152.396 586.648 151.937C586.695 152.361 586.745 152.766 586.799 153.152C587.226 156.139 587.908 158.784 588.847 161.088C589.117 161.672 589.401 162.227 589.7 162.752C590.537 164.221 591.49 165.458 592.559 166.464C594.095 167.744 596.271 168.384 599.087 168.384C601.903 168.384 605.188 167.573 608.943 165.952C611.718 164.78 614.292 163.386 616.666 161.769C617.577 161.148 618.459 160.495 619.311 159.808C621.008 158.432 622.545 156.994 623.922 155.495C624.755 158.437 626.306 161.07 628.576 163.392C628.613 163.43 628.649 163.467 628.686 163.504C632.342 167.184 637.126 169.024 643.04 169.024C649.099 169.024 653.92 167.872 657.504 165.568C658.04 165.211 658.56 164.839 659.065 164.454C661.826 162.346 664.132 159.811 665.982 156.849C666.058 156.726 666.133 156.604 666.208 156.48C666.215 156.515 666.222 156.55 666.228 156.585C667.103 161.044 668.453 164.239 670.278 166.171C671.673 167.646 673.346 168.384 675.296 168.384C678.624 168.384 682.037 167.573 685.536 165.952C689.035 164.331 692.192 162.283 695.008 159.808C697.909 157.248 700.256 154.475 702.048 151.488C702.596 150.549 703.06 149.654 703.44 148.802C703.788 148.024 704.065 147.283 704.273 146.579C704.375 146.233 704.46 145.896 704.528 145.568C704.548 145.472 704.567 145.378 704.584 145.284C704.685 144.723 704.736 144.188 704.736 143.68C704.736 139.755 703.968 137.792 702.432 137.792C701.749 137.792 700.64 138.645 699.104 140.352C698.084 141.413 697.108 142.411 696.178 143.346C696.066 143.458 695.955 143.569 695.844 143.68C695.795 143.73 695.745 143.779 695.696 143.828C689.123 150.385 684.883 153.664 682.976 153.664C681.184 153.664 680.288 150.123 680.288 143.04C680.288 135.957 680.629 130.453 681.312 126.528C683.616 122.603 685.365 119.232 686.56 116.416C686.56 114.112 685.195 111.68 682.464 109.12C681.419 108.075 680.348 107.237 679.25 106.605C677.568 105.636 675.823 105.152 674.016 105.152C673.909 105.152 673.804 105.158 673.699 105.17C673.548 105.187 673.398 105.217 673.251 105.258C672.318 105.523 671.454 106.279 670.657 107.528C670.405 107.924 670.159 108.369 669.92 108.864C669.511 108.638 669.082 108.431 668.634 108.243C667.863 107.92 667.035 107.651 666.147 107.438C665.539 107.291 664.903 107.171 664.239 107.076C663.025 106.903 661.718 106.816 660.32 106.816C656.395 106.816 652.64 107.371 649.056 108.48C645.557 109.589 641.76 111.893 637.664 115.392C633.127 119.327 629.658 123.941 627.255 129.236C625.513 133.076 624.332 137.273 623.713 141.829C623.704 141.894 623.695 141.959 623.687 142.024C623.557 142.192 623.422 142.36 623.281 142.528C622.912 142.97 622.506 143.417 622.061 143.868C621.494 144.443 620.866 145.025 620.177 145.613C618.671 146.898 616.873 148.215 614.783 149.562C614.714 149.607 614.645 149.651 614.575 149.696C614.448 149.775 614.322 149.852 614.197 149.929C610.134 152.419 607.316 153.664 605.743 153.664C603.78 153.664 602.799 150.251 602.799 143.424C602.799 136.597 603.695 127.979 605.487 117.568L618.287 118.208C619.226 118.293 620.036 117.184 620.719 114.88C621.487 112.576 621.871 110.656 621.871 109.12C621.871 108.523 621.786 108.096 621.615 107.84C621.53 107.499 620.676 107.328 619.055 107.328C618.778 107.328 618.428 107.325 618.007 107.32C616.092 107.294 612.687 107.212 607.791 107.072L613.039 97.856C612.612 96.4907 612.228 95.2107 611.887 94.016C610.522 89.7493 608.132 87.5733 604.719 87.488C600.452 87.488 596.271 94.0587 592.175 107.2C590.81 107.285 589.53 107.328 588.335 107.328H585.263C584.709 107.98 584.23 108.606 583.825 109.208C583.823 109.212 583.82 109.215 583.818 109.219C583.695 109.402 583.58 109.582 583.471 109.76C583.002 110.528 582.66 111.253 582.447 111.936C582.124 113.147 581.954 114.703 581.936 116.602C581.935 116.709 581.935 116.818 581.935 116.928C581.935 117.781 582.447 118.208 583.471 118.208H589.231C588.519 121.44 587.931 124.44 587.467 127.208C587.377 127.745 587.292 128.273 587.211 128.792C586.657 132.357 586.322 135.511 586.205 138.255C585.604 138.672 584.862 139.371 583.979 140.352C582.959 141.413 581.983 142.411 581.053 143.346C580.941 143.458 580.83 143.569 580.719 143.68C580.67 143.73 580.62 143.779 580.571 143.828C579.4 144.996 578.304 146.06 577.281 147.019C572.562 151.449 569.418 153.664 567.851 153.664C566.059 153.664 565.163 150.123 565.163 143.04C565.163 135.957 565.504 130.453 566.187 126.528C568.491 122.603 570.24 119.232 571.435 116.416C571.435 114.112 570.07 111.68 567.339 109.12C566.294 108.075 565.223 107.237 564.125 106.605C562.443 105.636 560.698 105.152 558.891 105.152C558.784 105.152 558.679 105.158 558.574 105.17C558.423 105.187 558.273 105.217 558.126 105.258C557.193 105.523 556.329 106.279 555.532 107.528C555.28 107.924 555.034 108.369 554.795 108.864C554.386 108.638 553.957 108.431 553.509 108.243C552.738 107.92 551.91 107.651 551.022 107.438C550.414 107.291 549.778 107.171 549.114 107.076C547.9 106.903 546.593 106.816 545.195 106.816C541.27 106.816 537.515 107.371 533.931 108.48C530.432 109.589 526.635 111.893 522.539 115.392C518.126 119.219 514.723 123.69 512.33 128.804C510.746 132.187 509.604 135.853 508.905 139.8C508.903 139.81 508.901 139.82 508.9 139.831C508.821 140.277 508.748 140.726 508.68 141.179C507.947 141.936 507.238 142.658 506.553 143.346C506.441 143.458 506.33 143.569 506.219 143.68C506.17 143.73 506.12 143.779 506.071 143.828C503.74 146.153 501.703 148.066 499.959 149.567C499.908 149.61 499.858 149.653 499.808 149.696C499.557 149.911 499.312 150.117 499.073 150.314C496.371 152.547 494.464 153.664 493.351 153.664C491.388 153.664 490.407 150.72 490.407 144.832C490.407 142.869 490.578 140.267 490.919 137.024C492.114 125.589 493.948 115.264 496.423 106.048C497.532 104.427 498.642 102.848 499.751 101.312C500.86 99.6907 501.842 98.0693 502.695 96.448C503.634 94.7413 504.402 92.9067 504.999 90.944C505.596 88.9813 505.895 86.976 505.895 84.928C505.895 82.88 504.956 80.448 503.079 77.632C500.946 74.2187 498.642 72.512 496.167 72.512C494.631 72.512 493.095 73.4507 491.559 75.328C487.823 79.8245 484.452 87.9101 481.446 99.5848C480.927 101.601 480.418 103.725 479.921 105.956C479.745 106.741 479.571 107.54 479.399 108.352L476.455 107.584C476.437 107.579 476.419 107.574 476.401 107.569C475.759 107.397 475.038 107.254 474.238 107.141C473.852 107.087 473.448 107.039 473.025 106.998C471.77 106.877 470.354 106.816 468.775 106.816C461.607 106.816 454.695 109.675 448.039 115.392C443.54 119.294 440.09 123.864 437.691 129.104C436.713 131.239 435.909 133.484 435.28 135.841C435.13 136.401 434.991 136.966 434.861 137.538C434.849 137.589 434.838 137.641 434.826 137.692C434.532 139.012 434.289 140.366 434.098 141.753C434.053 141.797 434.008 141.843 433.963 141.888C433.823 142.019 433.682 142.147 433.539 142.272C433.114 142.644 432.676 142.987 432.227 143.301C432.005 143.456 431.779 143.605 431.551 143.746C429.497 145.017 427.207 145.715 424.678 145.84C424.531 145.847 424.384 145.853 424.235 145.856H423.467C423.726 145.247 423.969 144.642 424.194 144.042C424.208 144.006 424.221 143.969 424.235 143.932C424.543 143.104 424.818 142.284 425.061 141.473C425.575 139.755 425.942 138.075 426.163 136.434C426.255 135.745 426.322 135.063 426.363 134.387C426.384 134.027 426.399 133.668 426.406 133.312C426.409 133.141 426.411 132.97 426.411 132.8C426.411 132.398 426.402 132.003 426.383 131.615C426.205 127.969 425.19 124.951 423.339 122.56C423.237 122.428 423.132 122.3 423.023 122.175C420.948 119.791 417.64 118.639 413.099 118.72C411.136 118.72 409.315 119.019 407.635 119.616C407.622 119.621 407.608 119.625 407.595 119.63C405.276 120.462 403.228 121.866 401.451 123.84C400.281 125.144 399.346 126.507 398.648 127.929C397.563 130.136 397.047 132.485 397.099 134.976C397.099 139.132 397.967 142.762 399.702 145.867C401.209 148.564 403.371 150.864 406.187 152.768C403.456 154.475 400 155.328 395.819 155.328C395.704 155.328 395.59 155.327 395.477 155.325C391.544 155.255 388.458 153.976 386.219 151.488C384 148.843 382.891 145.6 382.891 141.76C382.891 134.421 385.238 128.363 389.931 123.584C390.493 123.012 391.071 122.473 391.664 121.968C393.043 120.794 394.504 119.802 396.049 118.992C396.052 118.99 396.055 118.989 396.059 118.987C399.115 117.386 402.497 116.497 406.203 116.321C406.598 116.302 406.997 116.291 407.399 116.289C407.412 116.289 407.425 116.288 407.439 116.288C407.491 116.288 407.543 116.288 407.595 116.288C408.28 116.28 408.932 116.265 409.552 116.245C410.868 116.202 412.035 116.132 413.051 116.035C413.067 116.033 413.083 116.032 413.099 116.03C416.512 115.699 418.219 115.06 418.219 114.112C418.219 112.724 416.708 111.259 413.686 109.717C412.981 109.357 412.194 108.993 411.324 108.625C411.11 108.534 410.891 108.443 410.667 108.352C409.739 107.97 408.715 107.649 407.595 107.389C407.559 107.381 407.523 107.372 407.487 107.364C407.377 107.339 407.265 107.315 407.152 107.291C404.866 106.804 402.198 106.56 399.147 106.56C388.651 106.56 380.16 110.229 373.675 117.568C370.437 121.232 368.018 125.248 366.418 129.614C365.34 132.555 364.634 135.655 364.299 138.914C364.296 138.941 364.294 138.968 364.291 138.996C364.174 140.153 364.105 141.33 364.082 142.528C364.081 142.56 364.081 142.591 364.08 142.623C363.716 143.005 363.344 143.396 362.964 143.795C362.958 143.801 362.952 143.807 362.947 143.813C362.945 143.814 362.944 143.816 362.942 143.818C362.547 144.232 362.142 144.656 361.729 145.088C361.448 145.383 361.163 145.681 360.873 145.984C359.134 147.723 357.395 149.352 355.656 150.871C355.518 150.992 355.379 151.112 355.241 151.232C353.364 152.853 351.785 153.664 350.505 153.664C349.31 153.664 348.244 153.323 347.305 152.64C346.452 151.957 346.025 150.72 346.025 148.928C346.025 147.136 347.006 142.485 348.969 134.976C351.017 126.357 352.041 120.341 352.041 116.928C352.126 114.453 351.572 111.936 350.377 109.376ZM469.415 151.157C471.507 149.255 473.225 146.534 474.569 142.995C474.828 142.315 475.072 141.605 475.303 140.864C475.412 135.963 475.816 130.75 476.516 125.224C476.845 122.622 477.24 119.951 477.7 117.21C477.794 116.65 477.891 116.086 477.991 115.52C477.828 115.553 477.665 115.586 477.503 115.621C476.505 115.836 475.526 116.093 474.565 116.392C472.375 117.074 470.282 117.977 468.284 119.1C465.338 120.756 462.6 122.89 460.071 125.504C454.951 130.795 452.391 137.451 452.391 145.472C452.391 152.043 454.823 155.328 459.687 155.328C462.588 155.328 465.49 154.219 468.391 152C468.742 151.739 469.083 151.458 469.415 151.157ZM466.803 131.493C466.715 131.582 466.626 131.672 466.538 131.763C463.195 135.217 461.391 139.557 461.391 145.472C461.391 145.599 461.392 145.72 461.395 145.835C461.827 145.616 462.335 145.301 462.924 144.851L462.974 144.813L463.024 144.775C463.835 144.173 465.133 142.694 466.343 139.292C466.425 136.756 466.578 134.156 466.803 131.493ZM416.938 137.597C416.576 139.133 416.022 140.691 415.275 142.272C415.26 142.257 415.245 142.242 415.23 142.227C413.902 140.884 412.976 139.325 412.454 137.548C412.116 136.398 411.947 135.156 411.947 133.824C411.947 133.655 411.954 133.484 411.968 133.312C412.039 132.446 412.288 131.55 412.715 130.624C413.227 129.515 413.867 128.96 414.635 128.96C416.262 128.96 417.184 130.05 417.401 132.229C417.419 132.412 417.432 132.602 417.441 132.8C417.441 132.802 417.441 132.803 417.441 132.805C417.448 132.969 417.451 133.138 417.451 133.312C417.451 133.482 417.448 133.653 417.443 133.824C417.407 135.066 417.239 136.324 416.938 137.597ZM355.027 149.011C355.027 149.011 355.027 149.004 355.026 148.989C355.027 149.003 355.028 149.011 355.027 149.011ZM413.981 106.809C413.982 106.81 413.962 106.816 413.917 106.827C413.957 106.815 413.979 106.809 413.981 106.809ZM490.853 145.172C490.855 145.168 490.909 145.138 491.01 145.094C490.902 145.155 490.852 145.177 490.853 145.172ZM543.702 151.293C544.925 150.121 546.062 148.692 547.115 147.008C548.104 145.453 548.948 143.605 549.644 141.465C549.789 141.021 549.927 140.565 550.059 140.096C550.059 134.736 550.327 129.805 550.864 125.304C551.186 122.604 551.605 120.058 552.12 117.667C552.277 116.937 552.444 116.221 552.619 115.52C552.044 115.634 551.475 115.761 550.912 115.902C550.402 116.029 549.897 116.168 549.397 116.318C547.038 117.026 544.793 117.982 542.661 119.187C539.753 120.83 537.056 122.936 534.571 125.504C529.451 130.795 526.891 137.451 526.891 145.472C526.891 152.043 529.323 155.328 534.187 155.328C537.787 155.269 540.959 153.924 543.702 151.293ZM535.897 145.92C536.94 145.435 538.132 144.4 539.483 142.238L539.502 142.207L539.522 142.176C540.024 141.388 540.561 140.276 541.064 138.747C541.085 136.263 541.161 133.846 541.295 131.5C541.209 131.587 541.124 131.675 541.038 131.763C537.695 135.217 535.891 139.557 535.891 145.472C535.891 145.63 535.893 145.779 535.897 145.92ZM574.826 129.57C574.555 131.621 574.355 134.224 574.249 137.422C575.228 136.444 576.277 135.376 577.396 134.213C577.421 134.186 577.445 134.159 577.47 134.132C577.701 131.631 578.057 128.947 578.529 126.09C578.079 125.866 577.625 125.598 577.175 125.278C576.46 126.654 575.675 128.086 574.826 129.57ZM565.353 145.172C565.355 145.168 565.409 145.138 565.51 145.094C565.402 145.155 565.352 145.177 565.353 145.172ZM618.327 127.215C618.131 127.213 617.931 127.205 617.728 127.191L613.13 126.961C612.404 132.224 611.985 136.79 611.849 140.686C613.293 139.661 614.394 138.755 615.216 137.977C615.901 134.209 616.935 130.616 618.327 127.215ZM612.185 148.617C612.184 148.615 612.183 148.613 612.183 148.61C612.207 148.677 612.204 148.685 612.185 148.617ZM658.827 151.293C660.05 150.121 661.187 148.692 662.24 147.008C663.229 145.453 664.073 143.605 664.769 141.465C664.914 141.021 665.052 140.565 665.184 140.096C665.184 134.736 665.452 129.805 665.989 125.304C666.311 122.604 666.73 120.058 667.245 117.667C667.402 116.937 667.569 116.221 667.744 115.52C667.169 115.634 666.6 115.761 666.037 115.902C665.527 116.029 665.022 116.168 664.522 116.318C662.163 117.026 659.918 117.982 657.786 119.187C654.878 120.83 652.181 122.936 649.696 125.504C644.576 130.795 642.016 137.451 642.016 145.472C642.016 152.043 644.448 155.328 649.312 155.328C652.912 155.269 656.084 153.924 658.827 151.293ZM651.022 145.92C652.065 145.435 653.257 144.4 654.608 142.238L654.627 142.207L654.647 142.176C655.149 141.388 655.686 140.276 656.189 138.747C656.21 136.263 656.286 133.846 656.42 131.5C656.334 131.587 656.249 131.675 656.163 131.763C652.82 135.217 651.016 139.557 651.016 145.472C651.016 145.63 651.018 145.779 651.022 145.92ZM680.478 145.172C680.48 145.168 680.534 145.138 680.635 145.094C680.528 145.154 680.477 145.176 680.478 145.172ZM689.694 148.835C689.709 148.878 689.716 148.902 689.716 148.905C689.715 148.907 689.708 148.885 689.694 148.835Z" fill="#5152FF"/>
</svg>
