<svg xmlns="http://www.w3.org/2000/svg" version="1.1" xmlns:xlink="http://www.w3.org/1999/xlink" xmlns:svgjs="http://svgjs.com/svgjs" x="0" y="0" viewBox="0 0 512 512" style="enable-background:new 0 0 512 512" xml:space="preserve" class=""><g><circle cx="223.867" cy="288.133" r="223.867" fill="#939eff" data-original="#5abeff" class=""/><path fill="#939eff" d="M65.569 446.431c87.425 87.425 229.17 87.425 316.595 0s87.425-229.17 0-316.595z" data-original="#469be6" class=""/><path fill="#5e5fe7" d="M304.2 415.6H111.4c-8.284 0-15-6.716-15-15V207.8C96.4 93.219 189.619 0 304.2 0H497c8.284 0 15 6.716 15 15v192.8c0 114.581-93.219 207.8-207.8 207.8z" data-original="#bee75e" class=""/><path fill="#6977f5" d="M111.4 415.6h192.8c114.581 0 207.8-93.219 207.8-207.8V15c0-4.142-1.679-7.892-4.393-10.607L100.793 411.207A14.957 14.957 0 0 0 111.4 415.6z" data-original="#8ee26b" class=""/><path fill="#6977f5" d="M507.606 4.394c-5.857-5.858-15.355-5.858-21.213 0L367.4 123.387V95.334c0-8.284-6.716-15-15-15s-15 6.716-15 15v58.053l-50.334 50.334v-60.188c0-8.284-6.716-15-15-15s-15 6.716-15 15v90.188l-50.333 50.333v-92.32c0-8.284-6.716-15-15-15s-15 6.716-15 15v122.32L65.569 425.218c-5.858 5.858-5.858 15.355 0 21.213 5.858 5.859 15.357 5.857 21.213 0l111.164-111.164h122.32c8.284 0 15-6.716 15-15s-6.716-15-15-15h-92.32l50.334-50.333h90.187c8.284 0 15-6.716 15-15s-6.716-15-15-15H308.28l50.333-50.333h58.054c8.284 0 15-6.716 15-15s-6.716-15-15-15h-28.054L507.606 25.607c5.859-5.858 5.859-15.355 0-21.213z" data-original="#8ee26b" class=""/><path fill="#939eff" d="M65.569 446.431c5.858 5.859 15.357 5.857 21.213 0l111.164-111.164h122.32c8.284 0 15-6.716 15-15s-6.716-15-15-15h-92.32l50.334-50.333h90.187c8.284 0 15-6.716 15-15s-6.716-15-15-15H308.28l50.333-50.333h58.054c8.284 0 15-6.716 15-15s-6.716-15-15-15h-28.054L507.606 25.607c5.858-5.858 5.858-15.355 0-21.213z" data-original="#00cb75" class=""/></g></svg>