<?xml version="1.0" encoding="utf-8"?>
<!-- Generator: Adobe Illustrator 26.3.0, SVG Export Plug-In . SVG Version: 6.00 Build 0)  -->
<svg version="1.1" id="Layer_1" xmlns="http://www.w3.org/2000/svg" xmlns:xlink="http://www.w3.org/1999/xlink" x="0px" y="0px"
	 viewBox="0 0 50 50" style="enable-background:new 0 0 50 50;" xml:space="preserve">
<style type="text/css">
	.st0{fill:url(#SVGID_1_);}
</style>
<g>
	<g>
		<linearGradient id="SVGID_1_" gradientUnits="userSpaceOnUse" x1="0" y1="25" x2="50" y2="25">
			<stop  offset="0" style="stop-color:#522B79"/>
			<stop  offset="1" style="stop-color:#ED3284"/>
		</linearGradient>
		<path class="st0" d="M40.151516,50c-2.6308022,0-5.101799-1.0258675-6.9631882-2.8908157
			c-1.8613873-1.8649483-2.8852978-4.3406715-2.8852978-6.9765015v-5.3131752H19.69697v5.3131752
			c0,2.6358299-1.0253906,5.1145172-2.8852978,6.9765015c-3.7198162,3.7298927-10.2065582,3.7298927-13.9263744,0
			C1.0253906,45.2472,0,42.7685127,0,40.1326828c0-2.6358337,1.0253906-5.114521,2.8852983-6.9765053
			c1.8599076-1.8649464,4.3338661-2.8908157,6.9631867-2.8908157h5.30303V19.639019h-5.30303
			c-2.6322799,0-5.1047587-1.0273514-6.9646664-2.8908157C1.0253906,14.88622,0,12.4090137,0,9.7716999
			s1.0253906-5.114521,2.8852983-6.9779854c3.716856-3.7239642,10.2080383-3.7254465,13.9278526,0.0014825
			c1.858429,1.8619819,2.8838196,4.3391895,2.8838196,6.9765029v5.3131714h10.60606V9.7716999
			c0-2.6343489,1.0239105-5.1130385,2.8852978-6.9765034c3.7168579-3.7269289,10.2095184-3.7269289,13.9263725,0
			C48.9760895,4.6586614,50,7.137351,50,9.7716999s-1.0239105,5.1130381-2.8852997,6.9765034
			c-1.8584251,1.8634644-4.332386,2.8908157-6.9631844,2.8908157H34.848484v10.6263428h5.3030319
			c2.6307983,0,5.101799,1.0258694,6.9631844,2.8908157C48.9760895,35.0211258,50,37.4968491,50,40.1326828
			c0,2.6358299-1.0239105,5.1115532-2.8852997,6.9765015C45.253315,48.9741325,42.7823143,50,40.151516,50z M34.848484,34.8195076
			v5.3131752c0,1.4172401,0.5504265,2.751461,1.5536232,3.7565765c2.0063934,2.010231,5.492424,2.010231,7.4988174,0
			c1.0031929-1.0051155,1.5536194-2.3393364,1.5536194-3.7565765c0-1.417244-0.5504265-2.7514648-1.5536194-3.7565804
			c-1.0031967-1.0051155-2.3348732-1.5565948-3.7494087-1.5565948H34.848484z M9.848485,34.8195076
			c-1.4160156,0-2.7476921,0.5514793-3.7494082,1.5565948c-1.0017166,1.0021515-1.5536222,2.3363724-1.5536222,3.7565804
			c0,1.4202042,0.5519056,2.7544289,1.5536222,3.7565765c2.0034328,2.010231,5.4953837,2.010231,7.498816,0
			c1.0017166-1.0021477,1.5536222-2.3363724,1.5536222-3.7565765v-5.3131752H9.848485z M19.69697,30.2653618h10.60606V19.639019
			H19.69697V30.2653618z M34.848484,15.0848713h5.3030319c1.4174957,0,2.7491722-0.5529613,3.7494087-1.5565929
			c1.0031929-1.0036325,1.5536194-2.3378553,1.5536194-3.7565784s-0.5504265-2.7529469-1.5536194-3.7565789
			c-2.000473-2.0072637-5.4983444-2.0072637-7.4988174,0c-1.0031967,1.0036321-1.5536232,2.3378549-1.5536232,3.7565789V15.0848713z
			 M9.848485,4.458528c-1.4174957,0-2.7476921,0.5529609-3.7479286,1.5565929
			C5.0973601,7.0187531,4.5454545,8.3514938,4.5454545,9.7716999s0.5519056,2.7529459,1.5536222,3.7550955
			c1.0017161,1.0051146,2.3319125,1.5580759,3.7494082,1.5580759h5.30303V9.7716999
			c0-1.4202061-0.5519056-2.7529469-1.5536222-3.7550964C12.5961761,5.0114889,11.2659798,4.458528,9.848485,4.458528z"/>
	</g>
</g>
</svg>
