<?xml version="1.0" encoding="utf-8"?>
<!-- Generator: Adobe Illustrator 26.3.0, SVG Export Plug-In . SVG Version: 6.00 Build 0)  -->
<svg version="1.1" id="Layer_1" xmlns="http://www.w3.org/2000/svg" xmlns:xlink="http://www.w3.org/1999/xlink" x="0px" y="0px"
	 viewBox="0 0 50 50" style="enable-background:new 0 0 50 50;" xml:space="preserve">
<style type="text/css">
	.st0{fill:url(#SVGID_1_);}
	.st1{fill:url(#SVGID_00000064336361672954088610000014460753604322021558_);}
</style>
<g>
	<g>
		<g>
			<linearGradient id="SVGID_1_" gradientUnits="userSpaceOnUse" x1="0" y1="25" x2="50" y2="25">
				<stop  offset="0" style="stop-color:#522B79"/>
				<stop  offset="1" style="stop-color:#ED3284"/>
			</linearGradient>
			<path class="st0" d="M38.7334442,50H6.3598795c-1.6733851,0-3.312896-0.6783752-4.496799-1.8655281
				C0.6622404,46.9303551,0,45.3327866,0,43.6334572V11.2173443c0-1.7027197,0.6622404-3.3002911,1.8630805-4.504405
				c1.183903-1.1871552,2.8234138-1.8655295,4.496799-1.8655295h16.1867828c0.9586391,0,1.7343597,0.7767386,1.7343597,1.7366381
				s-0.7757206,1.7366385-1.7343597,1.7366385H6.3598795c-0.7604756,0-1.5057077,0.3086605-2.0443077,0.8479671
				c-0.5453744,0.546092-0.8468547,1.2753439-0.8468547,2.0486908V43.633461c0,0.7733459,0.3014803,1.4992065,0.8468547,2.0452995
				c0.5386,0.5393066,1.2838321,0.8479652,2.0443077,0.8479652h32.3735657c0.7621689,0,1.5074005-0.3086586,2.0460014-0.8479652
				c0.5453758-0.546093,0.8468552-1.2719536,0.8468552-2.0452995V27.423708c0-0.959898,0.7757187-1.7366371,1.7343559-1.7366371
				c0.9586411,0,1.7343597,0.7767391,1.7343597,1.7366371v16.209753c0,1.6993294-0.6605453,3.2968979-1.8630791,4.5010147
				C42.0497284,49.3216248,40.4068298,50,38.7334442,50z"/>
		</g>
		<g>
			
				<linearGradient id="SVGID_00000096759484933009301810000005323498956417300363_" gradientUnits="userSpaceOnUse" x1="0" y1="25" x2="50" y2="25">
				<stop  offset="0" style="stop-color:#522B79"/>
				<stop  offset="1" style="stop-color:#ED3284"/>
			</linearGradient>
			<path style="fill:url(#SVGID_00000096759484933009301810000005323498956417300363_);" d="M15.6092272,36.1068954
				c-0.4539137,0-0.897666-0.1797676-1.2262459-0.5087814c-0.4302015-0.4307671-0.6046543-1.0582619-0.4556074-1.6484489
				l2.3119125-9.2598076c0.0762177-0.3052692,0.2337322-0.5834026,0.4556084-0.8072662L38.6656952,1.8829144
				c2.4999161-2.5065928,6.8696861-2.5133765,9.3865395-0.0033919C49.3089676,3.1446905,50,4.8134913,50,6.5840478
				c0,1.7502055-0.7079697,3.4631009-1.9443779,4.7011342L26.0848217,33.2848587
				c-0.2218761,0.2238617-0.501339,0.3798904-0.8062057,0.457901l-9.2493496,2.3132591
				C15.8903828,36.0899353,15.7498055,36.1068954,15.6092272,36.1068954z M19.4878216,25.9991188l-1.4955444,5.9866524
				l5.9804878-1.4958153L45.6031303,8.8294668c0.5894089-0.5901852,0.928154-1.4076266,0.928154-2.245419
				c0-0.8445759-0.3319702-1.6450572-0.9315414-2.2488103c-1.1957588-1.190547-3.2857971-1.1939387-4.4815559,0.0033917
				L19.4878216,25.9991188z"/>
		</g>
	</g>
</g>
</svg>
