<?xml version="1.0" encoding="utf-8"?>
<!-- Generator: Adobe Illustrator 26.3.0, SVG Export Plug-In . SVG Version: 6.00 Build 0)  -->
<svg version="1.1" id="Layer_1" xmlns="http://www.w3.org/2000/svg" xmlns:xlink="http://www.w3.org/1999/xlink" x="0px" y="0px"
	 viewBox="0 0 52.6932983 50" style="enable-background:new 0 0 52.6932983 50;" xml:space="preserve">
<style type="text/css">
	.st0{fill:url(#SVGID_1_);}
	.st1{fill:url(#SVGID_00000183250207274545015430000003995407621284627133_);}
</style>
<g>
	<g>
		<linearGradient id="SVGID_1_" gradientUnits="userSpaceOnUse" x1="-0.0000059" y1="25" x2="52.693306" y2="25">
			<stop  offset="0" style="stop-color:#522B79"/>
			<stop  offset="1" style="stop-color:#ED3284"/>
		</linearGradient>
		<path class="st0" d="M49.7671547,28.0847569c1.9122162-3.9718857,2.9253807-8.170969,2.9253807-12.5464792
			C52.6925354,6.9603505,45.756546,0,37.2278557,0c-4.0683022,0-8.0142899,1.6421944-10.8817177,4.509624
			C23.4787083,1.6421944,19.5573406,0,15.4646759,0C6.9357271,0-0.0000059,6.9603505-0.0000059,15.5382776
			c0,18.9201126,17.9400253,29.3115311,24.2141628,31.4437675c0.6126175,0.2205315,1.3721695,0.3184891,2.1319809,0.3184891
			c0.7598095,0,1.4950008-0.0979576,2.058897-0.3428497c0.4636288-0.1546288,1.0152168-0.4041367,1.5319271-0.618515
			C32.4469261,48.6480865,35.6792603,50,39.0913506,50c7.49963,0,13.6019554-6.1025848,13.6019554-13.6268272
			C52.693306,33.3795776,51.6611633,30.5288162,49.7671547,28.0847569z M25.4150295,43.5019989
			C19.7781296,41.5656738,3.6762121,32.3017921,3.6762121,15.5382776c0-6.5436478,5.2937946-11.8620596,11.7884636-11.8620596
			c3.676218,0,7.2052441,1.7647691,9.4110775,4.7301559c0.6862125,0.9313631,2.2548103,0.9313631,2.9410248,0
			c2.2055759-2.9653869,5.7348576-4.7301559,9.4110775-4.7301559c6.4946671,0,11.7884636,5.3184118,11.7884636,11.8620596
			c0,3.3820906-0.6615982,6.6659651-1.9850464,9.8031626c-0.0412865-0.0294895-0.0876999-0.0492344-0.1292419-0.0782127
			c-0.0666733-0.0469265-0.1402664-0.0797501-0.2077103-0.1253948c-0.6154366-0.4131126-1.2603645-0.7692986-1.9293976-1.0767612
			c-0.2415619-0.1112919-0.4874802-0.2054024-0.7349358-0.3020763c-0.5533829-0.2161732-1.119072-0.3928547-1.6986122-0.5351753
			c-0.2430954-0.0592365-0.4808083-0.1279602-0.7277527-0.1738625c-0.8223801-0.1543713-1.6580963-0.2574577-2.5135536-0.2574577
			c-7.4993725,0-13.6019554,6.1025829-13.6019554,13.6019554c0,0.7410889,0.0812893,1.4714088,0.2023258,2.1932678
			c0.0423107,0.2572021,0.1048813,0.507225,0.161808,0.7610931c0.1041126,0.4569626,0.2295074,0.9054642,0.3800335,1.34832
			c0.0966759,0.2869492,0.1905289,0.5715904,0.306181,0.8518715c0.2079659,0.5013237,0.4523468,0.9854698,0.7180119,1.460125
			c0.0771847,0.1374512,0.1256504,0.2877197,0.2077103,0.4226036c-0.0705204,0.0233345-0.1407814,0.046669-0.2110443,0.0702629
			C26.8118191,43.649189,25.8560944,43.6735497,25.4150295,43.5019989z M39.0913506,46.3237839
			c-2.7938347,0-5.4897079-1.2011337-7.3767967-3.3087502c-1.6421947-1.8381119-2.5489407-4.1908798-2.5489407-6.6169891
			c0-5.4656048,4.4603901-9.925993,9.9257374-9.925993c1.8227234,0,3.5490265,0.5249176,5.0719795,1.4439716
			c0.162323,0.0984707,0.3377228,0.1697578,0.4946594,0.2777176c0.3192596,0.2187366,0.6044121,0.4928627,0.9000778,0.7503204
			c0.2159157,0.1882229,0.4472198,0.3531075,0.6492882,0.5608177c0.0300026,0.0369263,0.059494,0.0743656,0.0894966,0.1041126
			c1.7645111,1.8627262,2.7202339,4.2644749,2.7202339,6.789053C49.017086,41.8631363,44.5566978,46.3237839,39.0913506,46.3237839z
			"/>
		
			<linearGradient id="SVGID_00000059281992359470421850000002234719428631896457_" gradientUnits="userSpaceOnUse" x1="-0.0000059" y1="25" x2="52.693306" y2="25">
			<stop  offset="0" style="stop-color:#522B79"/>
			<stop  offset="1" style="stop-color:#ED3284"/>
		</linearGradient>
		<path style="fill:url(#SVGID_00000059281992359470421850000002234719428631896457_);" d="M41.7215805,36.5757523
			l1.7539978-1.7539978c0.7108307-0.7105751,0.7108307-1.8870888,0-2.5976639c-0.7108307-0.7108307-1.8873444-0.7108307-2.5976601,0
			l-1.7540016,1.7540016l-1.8199005-1.8196487c-0.7105751-0.7108307-1.8870888-0.7108307-2.5976639,0
			c-0.7108307,0.7105751-0.7108307,1.8870888,0,2.5979195l1.8196449,1.8196449l-1.872982,1.8729858
			c-0.7108307,0.7108307-0.7108307,1.8873444,0,2.5976601c0.3674698,0.3677254,0.8328934,0.5395355,1.2985764,0.5395355
			c0.4656792,0,0.9316177-0.1961708,1.2993431-0.5395355l1.8727264-1.872982l1.8075943,1.8075943
			c0.367466,0.3677216,0.8334045,0.5390205,1.2990875,0.5390205c0.4654236,0,0.9557228-0.1959152,1.2990875-0.5390205
			c0.7103195-0.7108307,0.7103195-1.8873444,0-2.5976639L41.7215805,36.5757523z"/>
	</g>
</g>
</svg>
