<?xml version="1.0" encoding="utf-8"?>
<!-- Generator: Adobe Illustrator 26.3.0, SVG Export Plug-In . SVG Version: 6.00 Build 0)  -->
<svg version="1.1" id="Layer_1" xmlns="http://www.w3.org/2000/svg" xmlns:xlink="http://www.w3.org/1999/xlink" x="0px" y="0px"
	 viewBox="0 0 50 50" style="enable-background:new 0 0 50 50;" xml:space="preserve">
<style type="text/css">
	.st0{fill:url(#SVGID_1_);}
	.st1{fill:url(#SVGID_00000048497709792936856170000018135680138984494779_);}
</style>
<g>
	<g>
		<linearGradient id="SVGID_1_" gradientUnits="userSpaceOnUse" x1="0" y1="25" x2="50" y2="25">
			<stop  offset="0" style="stop-color:#522B79"/>
			<stop  offset="1" style="stop-color:#ED3284"/>
		</linearGradient>
		<path class="st0" d="M17.3076916,46.1538467H7.051908c-0.85637,0-1.6601562-0.3342857-2.2667518-0.939003
			c-0.6047177-0.6047173-0.9390025-1.4085045-0.9390025-2.2648735V7.051908c0-0.85637,0.3342848-1.6601562,0.9390025-2.2667518
			C5.3917518,4.1804385,6.195538,3.8461537,7.051908,3.8461537h10.2557831c1.062952,0,1.9230785-0.860126,1.9230785-1.9230769
			S18.3706436,0,17.3076916,0H7.051908C5.1682692,0,3.3973107,0.7342999,2.0658052,2.0658052S0,5.1682692,0,7.051908v35.8980637
			c0,1.8817596,0.7342999,3.6508408,2.0658052,4.9842262C3.3973107,49.2675781,5.1682692,50,7.051908,50h10.2557831
			c1.062952,0,1.9230785-0.8601265,1.9230785-1.9230766S18.3706436,46.1538467,17.3076916,46.1538467z"/>
		
			<linearGradient id="SVGID_00000042005790923417060500000008462526606401898144_" gradientUnits="userSpaceOnUse" x1="0" y1="25" x2="50" y2="25">
			<stop  offset="0" style="stop-color:#522B79"/>
			<stop  offset="1" style="stop-color:#ED3284"/>
		</linearGradient>
		<path style="fill:url(#SVGID_00000042005790923417060500000008462526606401898144_);" d="M50,25
			c0-0.0016441-0.0009384-0.0030518-0.0009384-0.0046959c0.0007019-0.2532959-0.0509415-0.5054169-0.1497726-0.7429848
			c-0.0084496-0.0199547-0.0265274-0.0338039-0.0354462-0.0532875c-0.0929604-0.203764-0.2096329-0.400486-0.377243-0.5680981
			L36.6173363,10.8097954c-0.7512016-0.7512016-1.9681473-0.7512016-2.7193489,0
			c-0.7512016,0.7512026-0.7512016,1.9681492,0,2.7193508l9.5461311,9.5477772H17.3076916
			c-1.0629501,0-1.9230766,0.8601265-1.9230766,1.9230766s0.8601265,1.9230766,1.9230766,1.9230766h26.1176472l-9.5273514,9.5289955
			c-0.7512016,0.7512016-0.7512016,1.9681511,0,2.7193527c0.3755989,0.3755989,0.8676376,0.5634003,1.3596764,0.5634003
			c0.4920349,0,0.9840736-0.1878014,1.3596725-0.5634003l12.7880402-12.789917
			c0.1931992-0.185688,0.3467255-0.4082317,0.4493141-0.6608238c0.0598602-0.1457806,0.069252-0.3016548,0.0917854-0.4554157
			C49.9596214,25.174654,50,25.0941353,50,25z"/>
	</g>
</g>
</svg>
