<svg xmlns="http://www.w3.org/2000/svg" version="1.1" xmlns:xlink="http://www.w3.org/1999/xlink" xmlns:svgjs="http://svgjs.com/svgjs" x="0" y="0" viewBox="0 0 24 24" style="enable-background:new 0 0 512 512" xml:space="preserve" class=""><g><g fill="#000"><path d="M3.25 5.25A.75.75 0 0 1 4 4.5h16A.75.75 0 0 1 20 6H4a.75.75 0 0 1-.75-.75zM11.25 9.75A.75.75 0 0 1 12 9h8a.75.75 0 0 1 0 1.5h-8a.75.75 0 0 1-.75-.75zM11.25 14.25a.75.75 0 0 1 .75-.75h8a.75.75 0 0 1 0 1.5h-8a.75.75 0 0 1-.75-.75zM3.25 18.75A.75.75 0 0 1 4 18h16a.75.75 0 0 1 0 1.5H4a.75.75 0 0 1-.75-.75zM8.364 8.844a.75.75 0 0 1 .386.656v5a.75.75 0 0 1-1.147.636l-4-2.5a.75.75 0 0 1 0-1.272l4-2.5a.75.75 0 0 1 .76-.02zM5.415 12l1.835 1.147v-2.294z" fill="#8165ff" data-original="#000000" class=""/></g></g></svg>