<?xml version="1.0" encoding="utf-8"?>
<!-- Generator: Adobe Illustrator 26.3.0, SVG Export Plug-In . SVG Version: 6.00 Build 0)  -->
<svg version="1.1" id="Layer_1" xmlns="http://www.w3.org/2000/svg" xmlns:xlink="http://www.w3.org/1999/xlink" x="0px" y="0px"
	 viewBox="0 0 42.6175995 50" style="enable-background:new 0 0 42.6175995 50;" xml:space="preserve">
<style type="text/css">
	.st0{fill:url(#SVGID_1_);}
	.st1{fill:url(#SVGID_00000071543892262059572940000012263282396244946073_);}
</style>
<g>
	<g>
		<linearGradient id="SVGID_1_" gradientUnits="userSpaceOnUse" x1="-0.0021185" y1="24.9899902" x2="42.6192894" y2="24.9899902">
			<stop  offset="0" style="stop-color:#522B79"/>
			<stop  offset="1" style="stop-color:#ED3284"/>
		</linearGradient>
		<path class="st0" d="M28.1980686,21.3188362c0,3.8036823-3.0866337,6.8911686-6.889267,6.8911686
			c-3.8020191,0-6.8892708-3.0874863-6.8892708-6.8911686c0-1.0641212-0.8633947-1.9277515-1.9272194-1.9277515
			s-1.9272194,0.8636303-1.9272194,1.9277515c0,5.931303,4.8140392,10.7466698,10.7437096,10.7466698
			s10.7437077-4.8153667,10.7437077-10.7466698c0-1.0641212-0.8633957-1.9277515-1.9272213-1.9277515
			C29.0620804,19.3910847,28.1980686,20.254715,28.1980686,21.3188362z"/>
		
			<linearGradient id="SVGID_00000046310140506886015130000009230719776066364832_" gradientUnits="userSpaceOnUse" x1="-0.0021185" y1="24.9899902" x2="42.6192894" y2="24.9899902">
			<stop  offset="0" style="stop-color:#522B79"/>
			<stop  offset="1" style="stop-color:#ED3284"/>
		</linearGradient>
		<path style="fill:url(#SVGID_00000046310140506886015130000009230719776066364832_);" d="M42.5900269,43.9500122
			c-0.7400513-6.710022-2.2200317-21.0900269-2.8900146-27.25c-0.2900391-2.6300049-2.4500122-4.6699829-5.1000366-4.8500366
			C33.8300171,5.1799927,28.1599731-0.0100098,21.289978-0.0100098c-6.8599854,0-12.5299683,5.1900024-13.2999878,11.8599854
			c-2.6599731,0.1700439-4.8399658,2.2200317-5.1199951,4.8600464C2.210022,22.8699951,0.75,37.2600098,0.0300293,43.960022
			c-0.1700439,1.5499878,0.3399658,3.0899658,1.3999634,4.2399902c1.0499878,1.1400146,2.5300293,1.789978,4.0900269,1.789978
			h31.5700073c1.5699463,0,3.0499878-0.6499634,4.0999756-1.789978C42.25,47.039978,42.75,45.5,42.5900269,43.9500122z
			 M21.289978,3.8499756c4.7400513,0,8.6700439,3.460022,9.4100342,7.9800415H11.8900146
			C12.6300049,7.3099976,16.5599976,3.8499756,21.289978,3.8499756z M38.3499756,45.5900269
			c-0.3199463,0.3499756-0.7799683,0.5499878-1.2599487,0.5499878H5.5200195c-0.4700317,0-0.9299927-0.2000122-1.25-0.5499878
			c-0.3000488-0.3300171-0.4500122-0.7700195-0.4100342-1.2200317c0.7200317-6.7000122,2.1799927-21.0899658,2.8400269-27.2399902
			c0.0899658-0.8300171,0.8200073-1.4400024,1.6599731-1.4400024h25.8400269c0.8499756,0,1.5700073,0.6099854,1.6599731,1.4299927
			c0.6799927,6.1600342,2.1600342,20.539978,2.8900146,27.25C38.7999878,44.8200073,38.6500244,45.2600098,38.3499756,45.5900269z"
			/>
	</g>
</g>
</svg>
