<?xml version="1.0" encoding="utf-8"?>
<!-- Generator: Adobe Illustrator 26.3.0, SVG Export Plug-In . SVG Version: 6.00 Build 0)  -->
<svg version="1.1" id="Layer_1" xmlns="http://www.w3.org/2000/svg" xmlns:xlink="http://www.w3.org/1999/xlink" x="0px" y="0px"
	 viewBox="0 0 40.7050018 50" style="enable-background:new 0 0 40.7050018 50;" xml:space="preserve">
<style type="text/css">
	.st0{fill:url(#SVGID_1_);}
</style>
<g>
	<g>
		<linearGradient id="SVGID_1_" gradientUnits="userSpaceOnUse" x1="0.0000178" y1="25" x2="40.7049828" y2="25">
			<stop  offset="0" style="stop-color:#522B79"/>
			<stop  offset="1" style="stop-color:#ED3284"/>
		</linearGradient>
		<path class="st0" d="M39.6521339,2.4941225c-0.6269379-0.2810998-1.3799438-0.14992-1.8944397,0.3134689
			c-0.0204468,0.0170362-2.1193237,1.8450375-8.0990849,1.8450375c-3.1551323,0-5.8281384-1.0698833-8.657877-2.2010972
			C17.9887066,1.2453576,14.8744602,0,11.049798,0C3.565727,0,0.8007265,2.5469351,0.5111085,2.8382568
			C0.1840104,3.165355,0.0000178,3.6083002,0.0000178,4.0716891v27.9038467v0.006813v16.2731285
			C0.0000178,49.2197342,0.7802829,50,1.7445406,50s1.7445229-0.7802658,1.7445229-1.7445221V32.8940086
			c0.9431751-0.5357933,3.2224267-1.4908943,7.5607347-1.4908943c3.153429,0,5.8264341,1.0698814,8.6561728,2.2010956
			c3.0120277,1.2027664,6.1262722,2.4498291,9.9526386,2.4498291c7.4857731,0,10.2456646-2.5486374,10.535284-2.8382568
			c0.327095-0.3270988,0.5110893-0.7700424,0.5110893-1.2334328V4.0716891
			C40.7049828,3.3834202,40.2824821,2.7752223,39.6521339,2.4941225z M37.2159348,31.0760155
			c-0.9540329,0.5383492-3.2471275,1.4889793-7.5573254,1.4889793c-3.1551323,0-5.8281384-1.0698833-8.657877-2.2010975
			c-3.0120258-1.2027683-6.1262722-2.4498291-9.9509344-2.4498291c-3.449862,0-5.8962827,0.5400524-7.5607347,1.1516571V4.9763193
			C4.443099,4.4396744,6.7396002,3.4890456,11.049798,3.4890456c3.153429,0,5.8247309,1.0698833,8.6544695,2.201097
			c3.013731,1.2061739,6.1279755,2.4515314,9.9543419,2.4515314c3.4481564,0,5.8945789-0.5400524,7.5573254-1.1516576V31.0760155z"
			/>
	</g>
</g>
</svg>
